<svg xmlns="http://www.w3.org/2000/svg" width="512" height="512" viewBox="0 0 512 512">
  <path fill="#FB503B" fill-rule="evenodd" d="M210.662325,187.160917 L297.791778,139.159701 C303.554673,136.465083 306.053984,129.584114 303.374082,123.79034 C300.695704,117.996566 293,107 286,111.5 L147.206544,186.951476 L147.206544,60.7555342 C147.206544,52.6074071 138.653718,46.002045 128.103272,46.002045 C117.552826,46.002045 109,52.6074071 109,60.7555342 L109,349.080867 C109,357.228994 117.552826,363.834356 128.103272,363.834356 C138.653718,363.834356 147.206544,357.228994 147.206544,349.080867 L147.206544,221.917977 C147.646186,221.774094 148.081988,221.601973 148.511792,221.400786 L172.569475,208.146967 C172.626783,208.182347 172.684384,208.217431 172.742275,208.252215 L277.496678,271.19501 C285.307785,275.888397 295.44468,273.360985 300.138067,265.549878 L302.511898,261.599159 C307.205285,253.788052 304.677873,243.651157 296.866766,238.957771 L210.662325,187.160917 Z M72,0 L337,0 C376.764502,-7.30462051e-15 409,32.235498 409,72 L409,337 C409,376.764502 376.764502,409 337,409 L72,409 C32.235498,409 4.86974701e-15,376.764502 0,337 L0,72 C-4.86974701e-15,32.235498 32.235498,7.30462051e-15 72,0 Z" transform="translate(52 52)"/>
</svg>
