<svg xmlns="http://www.w3.org/2000/svg" width="512" height="512" viewBox="0 0 512 512">
  <g fill="none" fill-rule="evenodd">
    <path fill="#FB503B" d="M35,178.592634 L203.460762,86.1419437 C210.311986,82.9504982 218.453706,85.9277284 221.639163,92.7916961 C224.826432,99.6556639 221.853943,107.807647 215,111 L104.824262,171.462633 C106.179869,172.665798 107.317085,174.158905 108.132456,175.904368 L152.189108,270.232861 C155.386,277.083179 152.42057,285.224899 145.559325,288.420325 C138.69808,291.613938 130.542467,288.652324 127.34376,281.801099 L83.2871074,187.472607 C82.7425868,186.305617 82.3766699,185.101271 82.1783512,183.890337 L37.457875,208.432199 C36.6529323,208.807525 35.8302992,209.097463 35.0000006,209.305872 L35,359.5 C35,369.164983 27.1649831,377 17.5,377 C7.83501688,377 0,369.164983 0,359.5 L0,17.5 C0,7.83501688 7.83501688,1.42108547e-14 17.5,1.42108547e-14 C27.1649831,1.42108547e-14 35,7.83501688 35,17.5 L35,178.592634 Z" transform="translate(41 68)"/>
    <path fill="#FB503B" d="M92.4190446,431.540009 C91.4730101,430.593975 91,429.43983 91,428.07754 L91,354.173697 C91,353.492552 91.2270449,352.92494 91.6811414,352.470843 C92.135238,352.016747 92.7028501,351.789702 93.3839949,351.789702 L102.46588,351.789702 C103.147025,351.789702 103.714637,352.016747 104.168734,352.470843 C104.622831,352.92494 104.849875,353.492552 104.849875,354.173697 L104.849875,419.676796 L131.187343,419.676796 C131.868488,419.676796 132.4361,419.903841 132.890197,420.357938 C133.344294,420.812034 133.571338,421.379646 133.571338,422.060791 L133.571338,430.575059 C133.571338,431.256204 133.344294,431.823816 132.890197,432.277912 C132.4361,432.732009 131.868488,432.959054 131.187343,432.959054 L95.8815135,432.959054 C94.5192238,432.959054 93.3650791,432.486044 92.4190446,431.540009 Z M147.705023,429.042491 C143.731678,425.44756 141.745035,420.77422 141.745035,415.02233 C141.745035,409.80022 143.561394,405.467447 147.194167,402.023881 C150.826939,398.580316 155.935449,396.328788 162.519848,395.269229 C164.184869,395.117863 165.774183,394.890819 167.287838,394.588088 C172.585631,393.982625 175.8021,393.528536 176.937342,393.225805 C179.737604,392.771708 181.137714,391.182394 181.137714,388.457815 C181.137714,385.657553 179.983569,383.406025 177.675245,381.703162 C175.366921,380.0003 172.472099,379.148882 168.990692,379.148882 C162.860389,379.148882 158.395173,381.38149 155.594911,385.846773 C154.989449,386.830649 154.270473,387.322579 153.437963,387.322579 C152.832501,387.322579 152.34057,387.171216 151.962157,386.868485 L145.604837,382.554589 C144.923692,382.100493 144.583125,381.457199 144.583125,380.624689 C144.583125,380.39764 144.658806,380.057073 144.810172,379.602976 C147.004972,375.440425 150.259281,372.205035 154.573199,369.896711 C158.887116,367.588387 163.76858,366.434242 169.217739,366.434242 C174.212801,366.434242 178.602335,367.380263 182.386473,369.272332 C186.170611,371.164401 189.103274,373.851098 191.18455,377.332505 C193.265826,380.813912 194.306448,384.825038 194.306448,389.366003 L194.306448,430.575059 C194.306448,431.256204 194.079403,431.823816 193.625306,432.277912 C193.17121,432.732009 192.603598,432.959054 191.922453,432.959054 L184.20285,432.959054 C183.521705,432.959054 182.954093,432.750929 182.499997,432.334674 C182.0459,431.918419 181.818855,431.331887 181.818855,430.575059 L181.818855,426.14764 C176.596745,431.672481 170.390852,434.43486 163.20099,434.43486 C156.843638,434.43486 151.678368,432.637422 147.705023,429.042491 Z M172.623446,420.017367 C175.272343,418.503712 177.410348,416.517069 179.037528,414.05738 C180.664707,411.59769 181.478285,409.005594 181.478285,406.281015 L181.478285,404.010544 L172.964017,405.259303 C168.347369,405.789082 165.357945,406.205331 163.995655,406.508062 C157.789669,407.643304 154.686722,410.330001 154.686722,414.568236 C154.686722,416.914401 155.557061,418.787521 157.297764,420.187652 C159.038468,421.587783 161.346757,422.287838 164.222702,422.287838 C167.17433,422.287838 169.97455,421.531022 172.623446,420.017367 Z M209.291559,432.277912 C208.837462,431.823816 208.610418,431.256204 208.610418,430.575059 L208.610418,422.174315 C208.610418,421.49317 208.837462,420.925558 209.291559,420.471461 C209.745655,420.017365 210.313268,419.79032 210.994412,419.79032 L219.622204,419.79032 L219.622204,380.738212 L209.859177,380.738212 C209.178032,380.738212 208.61042,380.511167 208.156323,380.057071 C207.702227,379.602974 207.475182,379.035362 207.475182,378.354217 L207.475182,370.294044 C207.475182,369.612899 207.702227,369.045287 208.156323,368.59119 C208.61042,368.137094 209.178032,367.910049 209.859177,367.910049 L227.45533,367.910049 C228.81762,367.910049 229.971764,368.383059 230.917799,369.329093 C231.863833,370.275128 232.336843,371.429273 232.336843,372.791562 L232.336843,376.878411 L238.467116,371.996897 C240.737599,370.180511 242.705321,368.912844 244.370342,368.193858 C246.035362,367.474872 248.003085,367.115384 250.273567,367.115384 L253.792798,367.115384 C254.473943,367.115384 255.041555,367.342429 255.495652,367.796525 C255.949748,368.250622 256.176793,368.818234 256.176793,369.499379 L256.176793,378.240694 C256.176793,378.921838 255.949748,379.489451 255.495652,379.943547 C255.041555,380.397644 254.473943,380.624689 253.792798,380.624689 L250.841185,380.624689 C248.873433,380.624689 247.170597,380.965256 245.732625,381.646401 C244.294652,382.327545 242.099885,383.841178 239.148258,386.187343 L232.904461,391.18238 L232.904461,419.79032 L244.143295,419.79032 C244.824439,419.79032 245.392052,420.017365 245.846148,420.471461 C246.300245,420.925558 246.52729,421.49317 246.52729,422.174315 L246.52729,430.575059 C246.52729,431.256204 246.300245,431.823816 245.846148,432.277912 C245.392052,432.732009 244.824439,432.959054 244.143295,432.959054 L210.994412,432.959054 C210.313268,432.959054 209.745655,432.732009 209.291559,432.277912 Z M269.742859,429.042491 C265.769515,425.44756 263.782872,420.77422 263.782872,415.02233 C263.782872,409.80022 265.599231,405.467447 269.232003,402.023881 C272.864776,398.580316 277.973285,396.328788 284.557685,395.269229 C286.222706,395.117863 287.81202,394.890819 289.325675,394.588088 C294.623468,393.982625 297.839937,393.528536 298.975178,393.225805 C301.77544,392.771708 303.175551,391.182394 303.175551,388.457815 C303.175551,385.657553 302.021406,383.406025 299.713082,381.703162 C297.404758,380.0003 294.509935,379.148882 291.028529,379.148882 C284.898225,379.148882 280.43301,381.38149 277.632747,385.846773 C277.027285,386.830649 276.30831,387.322579 275.4758,387.322579 C274.870338,387.322579 274.378407,387.171216 273.999993,386.868485 L267.642673,382.554589 C266.961529,382.100493 266.620961,381.457199 266.620961,380.624689 C266.620961,380.39764 266.696643,380.057073 266.848008,379.602976 C269.042808,375.440425 272.297118,372.205035 276.611035,369.896711 C280.924953,367.588387 285.806417,366.434242 291.255576,366.434242 C296.250638,366.434242 300.640172,367.380263 304.42431,369.272332 C308.208448,371.164401 311.141111,373.851098 313.222386,377.332505 C315.303662,380.813912 316.344285,384.825038 316.344285,389.366003 L316.344285,430.575059 C316.344285,431.256204 316.11724,431.823816 315.663143,432.277912 C315.209047,432.732009 314.641434,432.959054 313.96029,432.959054 L306.240687,432.959054 C305.559542,432.959054 304.99193,432.750929 304.537833,432.334674 C304.083737,431.918419 303.856692,431.331887 303.856692,430.575059 L303.856692,426.14764 C298.634582,431.672481 292.428689,434.43486 285.238827,434.43486 C278.881475,434.43486 273.716204,432.637422 269.742859,429.042491 Z M294.661283,420.017367 C297.310179,418.503712 299.448185,416.517069 301.075364,414.05738 C302.702544,411.59769 303.516121,409.005594 303.516121,406.281015 L303.516121,404.010544 L295.001854,405.259303 C290.385205,405.789082 287.395781,406.205331 286.033492,406.508062 C279.827505,407.643304 276.724559,410.330001 276.724559,414.568236 C276.724559,416.914401 277.594898,418.787521 279.335601,420.187652 C281.076304,421.587783 283.384594,422.287838 286.260539,422.287838 C289.212166,422.287838 292.012386,421.531022 294.661283,420.017367 Z M351.763638,433.640195 C350.022935,433.640195 348.849869,432.845538 348.244407,431.2562 L327.242547,371.542803 C327.091182,371.088706 327.0155,370.748139 327.0155,370.521091 C327.0155,369.764263 327.280386,369.13989 327.810165,368.647952 C328.339944,368.156014 329.021079,367.910049 329.853589,367.910049 L337.800239,367.910049 C338.557067,367.910049 339.257122,368.137094 339.900425,368.59119 C340.543729,369.045287 340.978898,369.65074 341.205946,370.407567 L356.531628,416.044042 L371.85731,370.407567 C372.084358,369.65074 372.519527,369.045287 373.162831,368.59119 C373.806134,368.137094 374.506189,367.910049 375.263017,367.910049 L382.642049,367.910049 C383.474559,367.910049 384.155694,368.156014 384.685473,368.647952 C385.215252,369.13989 385.480138,369.764263 385.480138,370.521091 C385.480138,370.748139 385.404456,371.088706 385.253091,371.542803 L364.251231,431.2562 C363.9485,432.013028 363.475489,432.618481 362.832186,433.072577 C362.188883,433.526674 361.488828,433.753719 360.732,433.753719 L351.763638,433.640195 Z M408.468661,429.3263 C404.34395,426.904451 401.07072,423.612301 398.648872,419.449749 C396.227024,415.287197 395.016118,410.7463 395.016118,405.826921 L395.016118,393.566375 C395.016118,388.646996 396.227024,384.106099 398.648872,379.943547 C401.07072,375.780995 404.34395,372.488845 408.468661,370.066997 C412.593371,367.645148 417.115348,366.434242 422.034727,366.434242 C426.954107,366.434242 431.476083,367.645148 435.600794,370.066997 C439.725504,372.488845 442.998734,375.780995 445.420582,379.943547 C447.842431,384.106099 449.053337,388.646996 449.053337,393.566375 L449.053337,401.172455 C449.053337,402.534744 448.580327,403.688889 447.634292,404.634923 C446.688258,405.580958 445.534113,406.053968 444.171823,406.053968 L408.638946,406.053968 L408.638946,406.621586 C408.638946,410.330041 409.944454,413.489749 412.555509,416.100804 C415.166564,418.711859 418.326272,420.017367 422.034727,420.017367 L440.084975,420.017367 C440.76612,420.017367 441.333732,420.244412 441.787828,420.698508 C442.241925,421.152605 442.46897,421.720217 442.46897,422.401362 L442.46897,430.575059 C442.46897,431.256204 442.241925,431.823816 441.787828,432.277912 C441.333732,432.732009 440.76612,432.959054 440.084975,432.959054 L422.034727,432.959054 C417.115348,432.959054 412.593371,431.748148 408.468661,429.3263 Z M435.430508,393.793423 L435.430508,392.77171 C435.430508,389.063255 434.125,385.903548 431.513945,383.292492 C428.90289,380.681437 425.743182,379.375929 422.034727,379.375929 C418.326272,379.375929 415.166564,380.681437 412.555509,383.292492 C409.944454,385.903548 408.638946,389.063255 408.638946,392.77171 L408.638946,393.793423 L435.430508,393.793423 Z M470.679577,431.540009 C469.733542,430.593975 469.260532,429.43983 469.260532,428.07754 L469.260532,359.168734 L458.929887,359.168734 C458.248742,359.168734 457.68113,358.941689 457.227034,358.487593 C456.772937,358.033496 456.545892,357.465884 456.545892,356.784739 L456.545892,348.383995 C456.545892,347.70285 456.772937,347.135238 457.227034,346.681141 C457.68113,346.227045 458.248742,346 458.929887,346 L478.001847,346 C479.364136,346 480.518281,346.47301 481.464316,347.419045 C482.41035,348.365079 482.88336,349.519224 482.88336,350.881513 L482.88336,419.79032 L493.214005,419.79032 C493.89515,419.79032 494.462762,420.017365 494.916859,420.471461 C495.370955,420.925558 495.598,421.49317 495.598,422.174315 L495.598,430.575059 C495.598,431.256204 495.370955,431.823816 494.916859,432.277912 C494.462762,432.732009 493.89515,432.959054 493.214005,432.959054 L474.142045,432.959054 C472.779756,432.959054 471.625611,432.486044 470.679577,431.540009 Z"/>
  </g>
</svg>
